/* XPM */
static char * east_xpm[] = {
"64 64 335 2",
"  	c #BBA381",
". 	c #C1AA88",
"+ 	c #C5AE8C",
"@ 	c #C9B28E",
"# 	c #BDA482",
"$ 	c #B89F7D",
"% 	c #C3AC89",
"& 	c #C2AA87",
"* 	c #B79E7B",
"= 	c #BFA784",
"- 	c #C0A886",
"; 	c #C0A987",
"> 	c #C2AA88",
", 	c #BCA482",
"' 	c #BDA583",
") 	c #BFA785",
"! 	c #BEA784",
"~ 	c #BAA281",
"{ 	c #BDA584",
"] 	c #BCA381",
"^ 	c #BAA17F",
"/ 	c #BEA582",
"( 	c #C0A783",
"_ 	c #BFA682",
": 	c #C1A986",
"< 	c #C0A885",
"[ 	c #C1A985",
"} 	c #C4AD8A",
"| 	c #C7AF8C",
"1 	c #C4AC8A",
"2 	c #C4AC89",
"3 	c #B8A07E",
"4 	c #B8A17F",
"5 	c #C1AB89",
"6 	c #BFA786",
"7 	c #BBA281",
"8 	c #C1A987",
"9 	c #BBA481",
"0 	c #BBA380",
"a 	c #B9A17E",
"b 	c #BBA27F",
"c 	c #BFA783",
"d 	c #BAA17D",
"e 	c #BDA582",
"f 	c #BCA483",
"g 	c #C1A988",
"h 	c #BFA886",
"i 	c #B1997A",
"j 	c #B69F7F",
"k 	c #B9A281",
"l 	c #BCA584",
"m 	c #BCA380",
"n 	c #BCA481",
"o 	c #C3AB88",
"p 	c #BAA280",
"q 	c #BDA684",
"r 	c #C0A986",
"s 	c #BDA683",
"t 	c #BFA683",
"u 	c #C4AB88",
"v 	c #C0A683",
"w 	c #C1A886",
"x 	c #C2AB87",
"y 	c #C2AB88",
"z 	c #BFA885",
"A 	c #B9A180",
"B 	c #BEA684",
"C 	c #BEA583",
"D 	c #BDA481",
"E 	c #BEA683",
"F 	c #B9A07D",
"G 	c #B8A07D",
"H 	c #BEA783",
"I 	c #C6AE8A",
"J 	c #B69E7E",
"K 	c #B39B7A",
"L 	c #B59C7C",
"M 	c #C5AE8B",
"N 	c #B9A280",
"O 	c #BCA582",
"P 	c #BDA581",
"Q 	c #C5AD8A",
"R 	c #BBA280",
"S 	c #C1AA87",
"T 	c #B79F7E",
"U 	c #B69D7C",
"V 	c #B9A07F",
"W 	c #C3AB89",
"X 	c #BEA885",
"Y 	c #BBA480",
"Z 	c #C0A884",
"` 	c #BCA480",
" .	c #BFA782",
"..	c #BCA484",
"+.	c #B39C7B",
"@.	c #BEA785",
"#.	c #BDA685",
"$.	c #B59D7C",
"%.	c #BBA382",
"&.	c #C0AA87",
"*.	c #BCA583",
"=.	c #C0A785",
"-.	c #C2AB89",
";.	c #BBA482",
">.	c #B9A17F",
",.	c #BFA684",
"'.	c #C0A988",
").	c #B79F7D",
"!.	c #BAA37F",
"~.	c #BAA27F",
"{.	c #BAA381",
"].	c #AF9675",
"^.	c #BBA282",
"/.	c #C6AE8C",
"(.	c #C3AA87",
"_.	c #B69E7D",
":.	c #B19979",
"<.	c #BEA685",
"[.	c #B79F7F",
"}.	c #B8A07F",
"|.	c #BCA382",
"1.	c #BBA37F",
"2.	c #BBA383",
"3.	c #B59D7B",
"4.	c #B79E7D",
"5.	c #B89E7D",
"6.	c #C1AA8A",
"7.	c #C4AB87",
"8.	c #C7AF8B",
"9.	c #C6AE8B",
"0.	c #C3AB87",
"a.	c #C0A784",
"b.	c #B79E7C",
"c.	c #BFA888",
"d.	c #B8A181",
"e.	c #B59C7B",
"f.	c #C7B08E",
"g.	c #B39B7C",
"h.	c #C9B18D",
"i.	c #BEA686",
"j.	c #BBA483",
"k.	c #B29A79",
"l.	c #C0A887",
"m.	c #BEA584",
"n.	c #BDA382",
"o.	c #BCA383",
"p.	c #BAA180",
"q.	c #BDA483",
"r.	c #B89F7E",
"s.	c #B9A17D",
"t.	c #C0A786",
"u.	c #BFA884",
"v.	c #BFA887",
"w.	c #C4AD8B",
"x.	c #BAA382",
"y.	c #C4AD8C",
"z.	c #BFA685",
"A.	c #C1A887",
"B.	c #B69E7C",
"C.	c #B9A181",
"D.	c #C6AF8C",
"E.	c #C2AA86",
"F.	c #BEA483",
"G.	c #B59D7D",
"H.	c #C9B390",
"I.	c #C3AD8A",
"J.	c #BDA784",
"K.	c #BCA684",
"L.	c #C3AA89",
"M.	c #BEA482",
"N.	c #C3AD8B",
"O.	c #BEA786",
"P.	c #BBA486",
"Q.	c #C0AA88",
"R.	c #C0A985",
"S.	c #BAA282",
"T.	c #BCA585",
"U.	c #BDA585",
"V.	c #BDA686",
"W.	c #B8A180",
"X.	c #C2AA89",
"Y.	c #C4AB89",
"Z.	c #C1A885",
"`.	c #B29B7B",
" +	c #B9A282",
".+	c #B7A080",
"++	c #B59E7C",
"@+	c #B79E7E",
"#+	c #C8B18E",
"$+	c #B9A27E",
"%+	c #BBA582",
"&+	c #C1AA86",
"*+	c #C3AC8A",
"=+	c #B69F7E",
"-+	c #BEA481",
";+	c #BEA581",
">+	c #C2AC89",
",+	c #B49C7B",
"'+	c #BBA583",
")+	c #C1A884",
"!+	c #BDA580",
"~+	c #C3AA88",
"{+	c #C3AB8A",
"]+	c #BEA681",
"^+	c #C6B08D",
"/+	c #C5AD8B",
"(+	c #B9A27F",
"_+	c #C5AD88",
":+	c #C4AC88",
"<+	c #B49B79",
"[+	c #B59E7D",
"}+	c #C2AB86",
"|+	c #B39B7B",
"1+	c #B8A281",
"2+	c #C2AB8A",
"3+	c #C2A986",
"4+	c #C4AD89",
"5+	c #C3AC87",
"6+	c #B9A080",
"7+	c #BEA682",
"8+	c #C3AC88",
"9+	c #B9A081",
"0+	c #C2AA85",
"a+	c #BAA181",
"b+	c #B9A07E",
"c+	c #BCA683",
"d+	c #C3AB86",
"e+	c #CAB38F",
"f+	c #C7B08C",
"g+	c #BFA987",
"h+	c #C5AC89",
"i+	c #C2A988",
"j+	c #B39C7C",
"k+	c #B59D7E",
"l+	c #B7A07E",
"m+	c #C0A883",
"n+	c #C2AC8B",
"o+	c #B69F7D",
"p+	c #BAA483",
"q+	c #C7B18D",
"r+	c #C6AF8D",
"s+	c #C5AE8A",
"t+	c #BDA785",
"u+	c #C3AD89",
"v+	c #B89F81",
"w+	c #B69D7B",
"x+	c #C3AC8B",
"y+	c #B39A7B",
"z+	c #BCA685",
"A+	c #B79F80",
"B+	c #C4AE8A",
"C+	c #AF9776",
"D+	c #B29A7A",
"E+	c #C9B18F",
"F+	c #C9B18E",
"G+	c #B8A080",
"H+	c #C6AF8B",
"I+	c #B7A07D",
"J+	c #BBA17E",
"K+	c #C1AB88",
"L+	c #BDA480",
"M+	c #BBA17F",
"N+	c #C2A987",
"O+	c #B7A07F",
"P+	c #BFA986",
"Q+	c #B6A07E",
"R+	c #C5B08C",
"S+	c #C6B08B",
"T+	c #C5AF8D",
"U+	c #B29C7A",
"V+	c #BAA17E",
"W+	c #BEA787",
"X+	c #B69F81",
"Y+	c #B49C7C",
"Z+	c #C9B28C",
"`+	c #C1AA89",
" @	c #B7A082",
".@	c #B69E7F",
"+@	c #BDA682",
"@@	c #B8A17E",
"#@	c #BAA380",
"$@	c #B09877",
"%@	c #C2AC8A",
"&@	c #BCA37F",
"*@	c #BDA681",
"=@	c #B7A181",
"-@	c #B89F7F",
";@	c #B39A79",
">@	c #BBA27E",
",@	c #C1A784",
"'@	c #CBB491",
")@	c #C7AF8D",
"!@	c #BCA581",
"~@	c #B99F7C",
"{@	c #BFA985",
"]@	c #C2A985",
"^@	c #BDA380",
"/@	c #BAA27E",
"(@	c #C0A782",
"_@	c #C3AA86",
":@	c #B29879",
"<@	c #BFA583",
"[@	c #C4AE8B",
"}@	c #B29A7B",
"|@	c #C6AD89",
"1@	c #B9A283",
"2@	c #C7AF8A",
"3@	c #C6AD8A",
"4@	c #C7AF8E",
"5@	c #B59B7A",
"6@	c #C3A986",
"7@	c #BDA786",
"8@	c #BEA886",
"9@	c #C4AC87",
"0@	c #CCB491",
"a@	c #B8A182",
"b@	c #B49C7D",
"c@	c #B49D7C",
"d@	c #BBA484",
"e@	c #BBA485",
"f@	c #B8A081",
"g@	c #BDA783",
"h@	c #B39C7E",
"i@	c #C0A685",
"j@	c #B89F7C",
"k@	c #C0A682",
"l@	c #BCA280",
"m@	c #C4AE8C",
"n@	c #C2A984",
"o@	c #B79F7C",
"p@	c #C6B08C",
"q@	c #BBA17D",
"r@	c #BBA37E",
"s@	c #C6AD8C",
"t@	c #C5AC88",
"  . + @ # $ % & * = - ; >   , ' ) & ! ~ { % - ] ^ / ( _ : ) < [ } | 1 2 3 4 5 ) 6 7 8 ) 9 = 0 a = ( b * 0 c d e 9 f g f ] ~ ) h ",
"i j k l ; ; m n & 8 o p h o # q r = s r { p / t u v / / # & w ' ' x h p q y . ; ) z A , B C D E : F G 0 B z H e I q J A 6 . , q ",
"8 ) K L > g 0 < M f E > N ) 9 = ) O ! s P P e Q > R # S < # ~ T U V ~ W S & > ; X Y q h : , C Z `  .& : ..+.! @.T #.~ B ) f $.%.",
"a a < 2 ]   &.} % L p *.s # =.C ' ) - = / c & o 6 B # ' t = -.*.;.W %.>.e ) > A - ,.y '.).l p =   !.E ~.z {.].S 8 ^./.< A 4 ; B ",
". B < B > u (._.:.> ) C ) C m , E <.B / E n S , [.Q > )   z ' }.}.|.: 1.& & 7 ! ' 8 }.2.. { - p   %.S % 3.4.-.|.) - 5.8 <.8 M /.",
"6./.Z R 8 = 7.8.V <.9.0.x c a.) ,.;.' , *.=., f e   8 f J   B #.> B ! & 3 b.2 u A l c.d.%.,.S W = h S ).> ! 6 %.e.B 4.[.f.> [.r ",
"g._.< h R *.q B h.' p E [ z ! R # , ] ^ # # 8 *.3 %.V 9 6 - ) n ) < z <., :   ' >   J i.w n *.j.s ~ ~ r B { q >.C ;.z >.k.e.f r ",
"; f l.m.N ' ;.A $.  & c b E B - W l.y Q n.- p 7 . f { { -.w V o.e a.2.p.: q.) C r.: , - z n l g.N % -.V 3 = e 0 w W 8 s._.@.B { ",
"S W t.R z -.- - q.%.p.e u.t r - q v.*.' w.h O x.>.N y.z.  2 V A.7.D   B.C.l.  , ~ k > h ' >.B D.' p y D.% = E.8 B B q r & = > { ",
", s e - 8 |.,.F.6 = : *.@.) ,   @.f _.G.'.f % H.I.-.6 '.f >.8 t 4.B = } {.q > 9 o %.#.J.N ! ! n ' s q %.k }.' B <.) *.K.) E ' - ",
"' ~ ; L.m.4.  M.C ) ; q *.p <.B B > 8 #.6 - _.~ N.+ A ~ #.6 O.P.{ r Q.s E 0 9 y e o 3 ~ -.R.e   ' B   S.T.@.{ @.*.) f @.f T Q 8 ",
") # ; {.h W ' ,.E m.q.h = B q @.: ' ' h f 8 -.U.V.g...}.;.c.x.'.> A *.@.W.8 Q H z e O l h s B x & 8 S | 8 , , , B *.X.E - ; 0 B ",
"W E.>.*.B -.Y.& m.) p - Z.) 6 - @.s O , h 8 ) { O.6 2.1 <.`.}., {.f ,  +j..+l >.++*.<.; @+7 h   f W #+T ~.z z & - , B q q c ` , ",
"r.A % B E S > m.) # <., e { <.= O z B e Z = < %.}.< , p & - f ~ q = ~ #.q -.k %.} ....*.O.{ <.~ ~ i.C.k ' Y $+}.@.: >.@.~   8.2 ",
"' x.O.6 ; r %+8 E n ) ) < ' , s s e P E.E P ( o = n S ' {.: r j.~ { h &+a.T 1 *+@.; > { l *+v.&.@.i.#.. r n E T 4.' <.+.s s >.m ",
"+ *+) '.=+*.r q.' r < z = = , u.o D -+0 a ;+_ ( ( : < z q >+; , |.<.< D m ' |.B ~ C r.>.;.,+.+x.'+, 8 p a = , = %   8 } ' 8 E E ",
"= = q ' X.O.=.= @.n C ! ' H z z c o 9.)+!+D s c / c [ : B ! 4 - : ~ B ~+! ' B f . {+B , z <.f j.$.  R : ]+~.S S : ^+{.^ # m.} /+",
"a ' 8 C ' s s O 9 =.z s ' h q (+= } I.B _+8.:+x / b a e = e q 5 }.z.W f { ' B ,.  - ' ' A B <.<.< O.% G n q n E <+*.*+[+n Z.>.>.",
"-.o ' - ; z , ' ) <.@.@., , ! z l.l x.;.N } 1 = = = }+Y b o & ~ - B %.'.{ { l.a.b %.q : : , O.- e 6 v.{ { ) O z D.>.>.@.B c >.T ",
"- 0 B z ! e B f @.h @.s < r e - { |+1+2+#.}.E ;.  < ` 0 3+,.U ,.g h ' % A.~ ; q B r ; z.) m.E >.A B B @.{ ' B ) = r *., : / - Q ",
"0   4+E B - 6 , ' =.=.S = ' B m.' y 9.B.K e D # 5+= ! ` ,.E W q.6+# = , <., n ] ) 7+s B - ,.' =.B @.= @.;.e e n E z S 8+: X.*+r ",
"R 4+z @.h <.) ;+m / B 9.y E ; a.< n F c E m D C n c ] q.B ,.9+g ; m.A ' 4+9.W Y.- 0 n = a , ' = r - - s ! 0+a.B z n e h A a+A b+",
"y r N *.q { = - ,.s c+n a.- ! = =.E.: 3+d+v = e+a.B.o f+~ 2.a+# j.6+2 S .+d. +f g+8 ,.7+< = Z.u.e , - h @.e ' : h+i+# $ V ' s ' ",
"    <.B f %.@.z E s 0.G G ] e = B   y w , t < 3.= r s n &+w.E.] ' , , { j+k+6 {.=+g : ;+a.< E.< ) <., l+' 8 h ' 0 e # - B ~.2 , ",
", =.<.B B ' { B a.m+: =.< < : = *+n+#.l.f ) h +.{.r o+B.a e ) ' : B p+S I % ; 8 ! <.t n D R / e ;.{ r q+: *.s < R R ] e e ` ] = ",
"> ~+z r+& D ,.) e s+= ~.C > ' <   A 6 l z . %.h t+*+u+E.*.#.h ; = ) P ~ { ! n n e e ) = w E e , %.#.B v+s O   (+S S '   # > S W ",
"A *.9.e = t , , & = R e+- T %.- p p B N , B ' @.q w+, [ , x+J.A = : R.  ) E = & ' C /+y ! B E B q 8 C y+p 1 : e - : E ) B f W 8 ",
"q.z+'.    y z < 8 E m 3 } 8 %.l.H.Q , - e , > #.l = * A+g e.<.B+- - q _ S s 8 p : g }.h & E < B E = = d+:+<.. 8 n ;+E t.) - j.) ",
"W ; C+;.. p z u.% S H *.$.; W { k R n s o Z.) k D+E+F+@+<.W G+H+W I+  ^ ] ; ;., B   p.- z ! e # 0 ( [ )+: Z.0 m.n J+e q ' % D.p ",
"O r f.; q ) q =.# B ;.@.; ..v.f f t z = e e = : < 3.*+S ).r ; ++o K+>.) ' ' ! > ] * = f , B / & r L+= 2 E.Z D M+1 N+R p 8   R ; ",
"3 O+/+B   8 . ' , ' h @.; - # < [ Z c t n >.- @.& ~ q -.P+;.1+;.,+8 r ) @.= w R ! ) # , ; , 8 ) ] < c / x = f 2 , ' o ) B B A r ",
") - e : =.M.) B <.B ' B ) e < [ e e 0.t D N+Z.a.) F+B . B *+} *.A $ < , z Q+4 < n O e o ' - : D Z.E n n ' ) -.<.p.*.) B ' ) > m.",
"- B $ / < { ' -.<.q.*.- P E : c E =   # D C a.Z.C <.- ' u.>.' h } O $.,.y R+S+< e ! s b W > t = & C E R.) ' 9 q . v.{ h E B 8 - ",
"D B . - : i+{ p m.= - ` ) : P e C a   8 Q # q.- p ).T+%.p N R n - ) , E 0 U+k.r : C 0 = r E V+e R / ]+c ) ; p , z ' ! < =.= < ,.",
",.=.<.W+) q.U.# C ! { = O e 7+*.% & 8 l.,.,.B |.8 *+l T+*+r % & = & - 7+;.; l : = E : ) p < < n B ) Z B ) ,.- h ! = C E C < : ,.",
"= < p X+m., q.B =.8 @.! < ' , *.@.%.A l.<.      p.z.J g.U.; f z = = C ,.r ' : n ] = e ] - < z n 7+w { h ) n B > & < s c < z w < ",
"=.D = ) ,.< ) B B   ) ; ' ) q.  q W.Y+r 1 s - B A b+; O.{ %.~ p C = # = 0 >.0 , n C 0 # , n B w 7+m ' 0 ) B - E = E.Z+s+a.' B Z.",
",.= # C E E < t H E / q ! p e R.) 5 `+j.g E } > I.1 { <.' 8 <.  , / E.` ] ! B t ,.) s   ) N h -.) P e (.,.! c m E B  @: H w - , ",
"n C =.e s E ) =.= ! = B @.o B O.C n h f <.l.f O+[.r h A a ,.g+9 n E n = r N+' ~.< B B r ;.; , ;.B E q <.< 0 >.= - l .@n 8+,.# ' ",
"z *.) S & l.{.~.f 9 n & ' ] y ! ' C m.{ B + ~ *.c.l %.W.' _.' > B E 0 = z B f s s < *.s P+T ] B   @.z $ %.h ' - : %.Z.< m m E B ",
"q ; {.}.< > l O ) q ! S ) >.n < E ] q - , 3 ; l.8 ~ ).q l.< D a.+@: S 1.O , #.{ Y e E 0 O *.    p s } & - B - s ' - ! ' ) S & B ",
"h >.B g > , ~.r '.. : B <.r l.w E . 8 m.i+) -.Q p {.) < h = / n O < t *.# h @.) H %+B - <.-.| *+q 0 S S ) ) f E # ' z ' , B { , ",
"s s+} - , ! R.%.{ ) q B : r+l.@@;.q { ) r 8+^ $.S % B ` 7+E.Z.n : = n - ! { ]   ) q ;., <.<.f ~ 8 ; 3 e M E E C B 9 e ,.' *.j.; ",
"} B 0 B.#@s 8 ' $ q . (.] $@@.%@*+z e ' a ) & p }.- w &@*@= t L+M+E ) E ' f   l { q.*.{.= ) l 3 _.) % / b = E ) B r /+8 B ; r . ",
"=@}.3.; % 8 <.r+w.k A 8 S p l #.z *.*.% t ! r & ,.# [ _ c H a./   = ' q.6 N+B q.f q r @.*.e , S h %.' E a & % = B r 0 : r s B p ",
"x.&.Q.x.r.l.{ -@*+g   [.{.>+;.;@' f.g.6+o n = - Y.D >@/ E c c ) - 8 Z.@.- = l.) E { - = ;.n c s *.<.& <.Q ,@D = > ) ~.0 - r ) & ",
"E.G ) w.~ ).- v.{ X.*.' B A B '@)@<.) 7 m.2 p A   m / a.Z / = - < P !@y 8 r = n R.' >., > 8 O ) D B ) # ^ ~@/ = t O 8 y < # {@z ",
"n s ' E , E - _.q r l.8 B = ) K e ] =.z t t *+%.= < Z _ Z Z ]@,.C ' !@` = E P D /   Y z B B ! ^@/ { d.; @ :+^ w _ E ~.  ) n P 7+",
"E 7+X q ' p B g ) B 6 - { h 4+K <.M : ]@^@n - - , < < c /@_ (@/ < w n p m n e < E < u.; r+M ,._@[ : & <+:@<.L+m s ) c &+B B Z < ",
"=.7+E y {+8 ' : #@] <@{ 8 > }.T T <./ #@W o C [ '   = n D 0 0 0.< e D E E e ) % e 3 z [@}@+.&+a n D )+|@y+1@2@m 8 - y c E < Z c ",
"=.1.$ b+< -.! n n E < e < p.7 8 ; ~ e %.A   C R E R 0 s e ! e 7+[ 4+[ e e = - 7 }.f 6 O+G+{.$.c V+F 0 f = >@N+3@^ ' # e e ,.E B ",
"' : )@B p -.a.e y s+} = # t : u.- e   - ! |.W ~ O+4@- e - ! % & u.B ; W ,.e B { q > - O.s c < ] Z / C =.|.p 5@6@! < [ = ] ] 0 ' ",
"B A o 6 @.7 e e   ;.p s ' Z.b ] a.[   n < D ^ % 6 , e = 7@O.#.8@9 , x.y [ = ' y h , C o 9@7+0+1.] Z.4 ] (.Z P e.: ( ,.- a./ , |.",
"=.< 7 V ' u B %.b+3.>.r & z : E n 0 # ) = 0 ).p 0@B ! *+k 1@a@b@*.6 ) ) o 0 o ) , - ) n [ 3+] R.E # P+%.0 *@:+u.) : %.%.: : ) %.",
"E ,.5@) ) : : f B W h >.E ) ' ) B p e ,.D = . }.c@+ '.j.q d@v.x+S.O+<.) >.R.e r.% h = C e =.E Z.= #@c+X E   - Q C+~ h E C.e@R.h ",
"s $.s E E J '.> <.- ' 0 { , ,.B - { %.p !@n B 8@x.[.A }.h ; i.*.l.'.f o.-.<.J l.! G Y = C /@e s E r #@).B N ,+$.8 - @.E ..2.V ,.",
"^ 6 M a e - D+*.*+_.' C R R.E N+i+<.@.- . !@n ! . - q ; - O.#.*.B {+) ~ *.W r K+' E P 8 0.+@e & E E > > + | q l Q.& _.f : ' j.r.",
"r.-.S T - W @.*.' >.n 8 =.' , 8 - { 9 # l.! E Y s B 7+' B , B h ) ;.{.W.{.) .   E O e 8 6 <.O D ,.B 0 O +.S.6.j.  _.' k q 7 e.[ ",
"B ! ).- r+6 f h ' (.< z . ) r { p.=.] p B @.h E ' 0 C ) q ' B # ~ n [ ' B ) < t E / = R.d.f@E a , - H g@z h@a@s 7   @., }.W < 3 ",
"z.G p #@>.: =.p ' , S z A -.#.' { i@w z B ' ,.) m.) , - = ' E W : Z.= / m E E t E E a.p ) u.e ) = ) h ' & x = , x | Q.) { /+q 3 ",
"=.t R.h , m a.a.,.) C q '.{ @.r = B m.h ) ,.- ) t./ 7+j@< ! ]@C P = < o E k@< l@e e ` V+B = r < ' B = 0 R < = B O @.B W.f K l m@",
"y x = : o 3+;+P t < ' B '.@.l ~ c , = z.~ q.B 0 # , e /@3 t _ m a.0 t Z.a.n@[ t D ' e R.@.< 7+>@G 9 < ! < y & w %.j+l.e x.W+G+) ",
"o@e.C t.;.e e e h B p@; B , #.w.< # ' , [., , n # & a.[ t n / / [ Z.&@q@t - ! o : B ,.B 8 < r@c # n   R.E p ~ ] 6 -., n B @.r , ",
"0 E ;.;.~ = o ~.=.B E q   o z ~ # ! z ; s@{ ,.& t@/ [ E.= Q o 7+P ~+=._ c r {.  : ) e ' ! z t : - L+e & % 0 = ) ) 6 l < C , g ;."};
